<svg id="svg" version="1.1" xmlns="http://www.w3.org/2000/svg" xmlns:xlink="http://www.w3.org/1999/xlink" width="400" height="301.1764705882353" viewBox="0, 0, 400,301.1764705882353"><g id="svgg"><path id="path0" d="M0.000 150.588 L 0.000 301.176 150.588 301.176 L 301.176 301.176 301.176 293.445 L 301.176 285.714 158.319 285.714 L 15.462 285.714 15.462 150.588 L 15.462 15.462 150.588 15.462 L 285.714 15.462 285.714 102.185 L 285.714 188.908 293.445 188.908 L 301.176 188.908 301.176 94.454 L 301.176 0.000 150.588 0.000 L 0.000 0.000 0.000 150.588 M21.821 23.025 C 21.644 23.487,21.578 40.807,21.674 61.513 L 21.849 99.160 48.908 99.335 L 75.966 99.511 75.966 92.108 L 75.966 84.706 57.143 84.706 L 38.319 84.706 38.319 53.445 L 38.319 22.185 30.231 22.185 C 24.380 22.185,22.054 22.417,21.821 23.025 M98.001 41.021 C 87.460 42.684,81.540 48.259,80.288 57.702 L 79.827 61.176 87.234 61.176 L 94.640 61.176 95.062 58.931 C 96.383 51.889,111.671 50.166,113.353 56.869 C 114.404 61.058,111.489 63.177,102.857 64.496 C 83.755 67.416,78.332 71.815,78.361 84.370 C 78.395 99.271,97.142 106.086,111.689 96.485 L 114.134 94.871 114.529 96.847 L 114.924 98.824 122.336 98.824 L 129.748 98.824 129.743 80.504 C 129.736 55.085,128.681 49.983,122.455 45.234 C 117.434 41.404,106.984 39.604,98.001 41.021 M113.613 76.412 C 113.613 87.582,95.902 95.236,93.929 84.918 C 92.801 79.015,99.053 75.029,113.109 72.689 C 113.387 72.643,113.613 74.318,113.613 76.412 M22.185 147.615 L 22.185 189.744 44.874 189.390 C 73.963 188.935,78.677 187.854,85.719 180.021 C 94.224 170.561,92.861 152.642,83.140 146.130 C 81.598 145.097,80.208 144.163,80.052 144.054 C 79.896 143.946,81.040 142.768,82.596 141.436 C 93.105 132.441,89.740 113.951,76.479 107.826 L 72.269 105.882 47.227 105.684 L 22.185 105.485 22.185 147.615 M66.942 121.610 C 73.576 124.623,72.436 135.147,65.260 137.140 C 63.938 137.507,57.639 137.809,51.261 137.811 L 39.664 137.815 39.664 129.076 L 39.664 120.336 51.933 120.351 C 62.417 120.364,64.600 120.547,66.942 121.610 M118.674 125.759 C 99.372 128.986,88.419 149.027,94.763 169.513 C 104.056 199.526,149.495 197.553,155.896 166.858 C 161.283 141.024,143.673 121.580,118.674 125.759 M244.706 125.800 C 232.753 127.743,225.263 135.526,225.218 146.050 L 225.210 147.899 232.962 147.899 C 239.765 147.899,240.757 147.755,241.062 146.723 C 243.651 137.968,256.536 135.009,261.184 142.101 C 264.426 147.050,261.191 149.506,248.621 151.639 C 233.299 154.239,228.687 156.545,225.408 163.247 C 222.859 168.457,222.723 176.849,225.108 181.694 C 230.051 191.731,249.821 194.077,260.544 185.898 C 262.696 184.256,262.857 184.226,262.857 185.457 C 262.857 188.779,263.186 188.908,271.669 188.908 L 279.664 188.908 279.658 170.252 C 279.650 142.574,278.650 136.867,272.833 131.295 C 267.478 126.165,256.117 123.946,244.706 125.800 M162.139 150.756 L 162.353 174.454 164.102 178.182 C 170.764 192.387,190.094 195.428,200.244 183.868 L 202.353 181.466 202.353 185.544 L 202.353 189.623 210.252 189.433 L 218.151 189.244 218.326 158.151 L 218.501 127.059 210.091 127.059 L 201.681 127.059 201.681 145.760 C 201.681 171.983,199.949 176.230,189.258 176.230 C 179.711 176.230,179.212 174.884,178.942 148.403 L 178.723 127.059 170.324 127.059 L 161.925 127.059 162.139 150.756 M130.522 140.521 C 141.615 143.602,143.175 168.890,132.628 174.660 C 124.457 179.129,113.818 174.930,111.667 166.386 C 107.253 148.857,116.225 136.550,130.522 140.521 M69.064 154.129 C 75.778 157.798,74.917 169.213,67.662 172.725 C 65.067 173.981,63.555 174.118,52.225 174.118 L 39.664 174.118 39.664 163.312 L 39.664 152.506 53.277 152.724 C 64.746 152.907,67.233 153.128,69.064 154.129 M262.170 163.866 C 262.129 174.745,248.770 183.193,242.121 176.544 C 236.655 171.079,240.664 165.676,252.417 162.666 C 256.839 161.534,260.594 160.470,260.761 160.304 C 261.739 159.326,262.183 160.450,262.170 163.866 M22.185 237.699 L 22.185 279.828 44.874 279.474 C 73.963 279.019,78.677 277.938,85.719 270.105 C 94.224 260.645,92.861 242.727,83.140 236.214 C 81.598 235.181,80.208 234.247,80.052 234.138 C 79.896 234.030,81.040 232.852,82.596 231.520 C 93.105 222.525,89.740 204.035,76.479 197.910 L 72.269 195.966 47.227 195.768 L 22.185 195.569 22.185 237.699 M285.179 231.429 C 285.388 262.346,285.398 262.543,286.984 266.491 C 294.735 285.789,326.623 285.818,334.128 266.534 C 335.504 262.998,335.725 261.061,335.986 250.252 L 336.282 237.983 328.185 237.983 L 320.089 237.983 319.876 249.244 C 319.601 263.836,317.234 267.489,309.048 265.953 C 302.963 264.812,301.857 261.313,301.852 243.193 L 301.849 229.244 318.992 229.244 L 336.134 229.244 336.134 223.193 L 336.134 217.143 318.992 217.143 L 301.849 217.143 301.849 208.739 L 301.849 200.336 293.408 200.336 L 284.968 200.336 285.179 231.429 M66.942 211.694 C 73.576 214.707,72.436 225.231,65.260 227.224 C 63.938 227.591,57.639 227.893,51.261 227.895 L 39.664 227.899 39.664 219.160 L 39.664 210.420 51.933 210.435 C 62.417 210.448,64.600 210.631,66.942 211.694 M118.674 215.843 C 99.372 219.070,88.419 239.111,94.763 259.597 C 104.056 289.610,149.495 287.637,155.896 256.942 C 161.283 231.108,143.673 211.664,118.674 215.843 M244.706 215.884 C 232.753 217.827,225.263 225.610,225.218 236.134 L 225.210 237.983 232.962 237.983 C 239.765 237.983,240.757 237.839,241.062 236.807 C 243.651 228.052,256.536 225.093,261.184 232.185 C 264.426 237.134,261.191 239.590,248.621 241.723 C 233.299 244.323,228.687 246.629,225.408 253.331 C 222.859 258.541,222.723 266.933,225.108 271.778 C 230.051 281.815,249.821 284.161,260.544 275.982 C 262.696 274.340,262.857 274.310,262.857 275.541 C 262.857 278.863,263.186 278.992,271.669 278.992 L 279.664 278.992 279.658 260.336 C 279.650 232.658,278.650 226.951,272.833 221.379 C 267.478 216.249,256.117 214.030,244.706 215.884 M363.339 216.116 C 343.426 220.451,334.317 244.888,344.551 266.521 C 353.827 286.128,387.068 285.838,396.961 266.063 C 399.961 260.065,400.071 260.163,390.380 260.194 L 382.185 260.220 380.840 262.346 C 374.861 271.800,360.217 267.271,357.966 255.271 L 357.497 252.773 378.749 252.773 L 400.000 252.773 400.000 248.711 C 400.000 225.323,384.470 211.515,363.339 216.116 M162.139 240.840 L 162.353 264.538 164.102 268.266 C 170.764 282.471,190.094 285.512,200.244 273.952 L 202.353 271.550 202.353 275.628 L 202.353 279.707 210.252 279.517 L 218.151 279.328 218.326 248.235 L 218.501 217.143 210.091 217.143 L 201.681 217.143 201.681 235.844 C 201.681 262.067,199.949 266.315,189.258 266.315 C 179.711 266.315,179.212 264.968,178.942 238.487 L 178.723 217.143 170.324 217.143 L 161.925 217.143 162.139 240.840 M376.641 230.802 C 379.321 232.269,382.521 237.529,382.521 240.468 L 382.521 242.017 370.420 242.017 L 358.319 242.017 358.334 240.504 C 358.375 236.341,363.050 230.376,366.943 229.521 C 367.931 229.304,369.042 229.037,369.412 228.929 C 370.714 228.547,374.146 229.436,376.641 230.802 M130.522 230.605 C 141.615 233.686,143.175 258.975,132.628 264.744 C 124.457 269.213,113.818 265.014,111.667 256.470 C 107.253 238.941,116.225 226.634,130.522 230.605 M69.064 244.213 C 75.778 247.882,74.917 259.297,67.662 262.809 C 65.067 264.065,63.555 264.202,52.225 264.202 L 39.664 264.202 39.664 253.396 L 39.664 242.590 53.277 242.808 C 64.746 242.991,67.233 243.212,69.064 244.213 M262.170 253.950 C 262.129 264.829,248.770 273.277,242.121 266.628 C 236.655 261.163,240.664 255.760,252.417 252.750 C 256.839 251.618,260.594 250.554,260.761 250.388 C 261.739 249.410,262.183 250.534,262.170 253.950 " stroke="none" fill="#000000" fill-rule="evenodd"></path></g></svg>