<?xml version="1.0" standalone="no"?>
<!DOCTYPE svg PUBLIC "-//W3C//DTD SVG 20010904//EN"
 "http://www.w3.org/TR/2001/REC-SVG-20010904/DTD/svg10.dtd">
<svg version="1.0" xmlns="http://www.w3.org/2000/svg"
 width="1896.000000pt" height="196.000000pt" viewBox="0 0 1896.000000 196.000000"
 preserveAspectRatio="xMidYMid meet">

<g transform="translate(0.000000,196.000000) scale(0.100000,-0.100000)"
fill="#333" stroke="none">
<path d="M10 995 l0 -955 670 0 670 0 0 175 0 175 -470 0 -470 0 0 780 0 780
-200 0 -200 0 0 -955z"/>
<path d="M3540 995 l0 -955 468 0 c257 0 506 5 552 10 305 37 493 187 544 433
19 93 20 148 1 251 -25 143 -99 249 -217 311 l-56 29 52 32 c147 93 208 274
157 474 -49 193 -177 312 -383 354 -65 13 -162 16 -598 16 l-520 0 0 -955z
m988 614 c98 -24 142 -83 142 -191 -1 -109 -43 -171 -135 -197 -25 -7 -147
-11 -322 -11 l-283 0 0 205 0 205 276 0 c171 0 293 -4 322 -11z m62 -751 c58
-27 91 -59 116 -112 46 -99 24 -217 -56 -296 -75 -76 -97 -80 -432 -80 l-288
0 0 256 0 255 313 -3 c262 -3 318 -6 347 -20z"/>
<path d="M10280 995 l0 -955 468 0 c484 0 589 6 707 41 310 93 457 355 384
688 -25 112 -110 223 -214 277 l-53 28 31 19 c122 74 197 207 197 346 -1 201
-99 369 -262 446 -131 63 -155 65 -735 65 l-523 0 0 -955z m1031 599 c67 -31
93 -73 97 -157 7 -119 -37 -190 -133 -216 -25 -7 -149 -11 -322 -11 l-283 0 0
206 0 205 298 -3 c278 -3 300 -4 343 -24z m-10 -730 c101 -30 155 -94 166
-199 8 -81 -18 -157 -75 -214 -77 -77 -98 -81 -434 -81 l-288 0 0 255 0 255
288 0 c235 0 298 -3 343 -16z"/>
<path d="M16342 1128 c3 -707 3 -714 25 -771 37 -98 74 -156 135 -212 107 -99
227 -139 418 -138 106 0 137 4 202 25 179 59 291 178 344 365 13 45 18 117 21
316 l5 257 -176 0 -176 0 0 -210 c0 -115 -5 -232 -11 -259 -22 -105 -102 -170
-207 -171 -99 0 -159 39 -194 129 -20 53 -22 76 -26 394 l-4 337 396 0 396 0
0 135 0 135 -395 0 -395 0 0 190 0 190 -180 0 -181 0 3 -712z"/>
<path d="M1870 1475 c-167 -36 -273 -106 -344 -227 -28 -48 -56 -152 -56 -210
l0 -38 175 0 c169 0 175 1 175 20 0 35 41 110 74 134 47 36 103 50 192 49 167
-2 259 -90 211 -204 -23 -55 -73 -74 -307 -113 -113 -19 -240 -47 -283 -62
-131 -44 -216 -124 -259 -241 -17 -46 -22 -82 -22 -178 -1 -116 0 -123 32
-187 71 -145 206 -211 432 -212 166 0 284 37 387 120 l42 34 12 -60 12 -60
173 0 174 0 0 508 c0 474 -1 514 -20 586 -11 43 -32 100 -47 127 -57 106 -174
183 -325 213 -96 20 -336 20 -428 1z m440 -932 c-24 -134 -107 -223 -242 -259
-179 -47 -294 33 -266 186 18 97 79 135 299 185 83 19 166 44 183 55 l31 19 3
-65 c2 -35 -2 -90 -8 -121z"/>
<path d="M5715 1476 c-223 -52 -392 -187 -476 -384 -65 -150 -83 -404 -40
-566 79 -299 292 -482 604 -516 250 -28 468 42 622 199 193 197 252 568 137
863 -40 104 -81 165 -158 238 -79 74 -145 112 -249 147 -69 22 -101 26 -230
29 -103 3 -169 -1 -210 -10z m254 -306 c83 -14 129 -39 179 -96 71 -80 86
-134 86 -314 1 -124 -3 -167 -18 -217 -43 -141 -142 -215 -295 -222 -47 -2
-103 2 -125 9 -63 18 -142 76 -171 126 -39 66 -65 182 -65 288 1 254 90 395
270 426 64 11 68 11 139 0z"/>
<path d="M8610 1475 c-166 -36 -290 -118 -349 -233 -26 -51 -51 -150 -51 -201
l0 -41 174 0 173 0 7 38 c8 51 55 114 100 136 81 38 231 40 302 3 72 -37 100
-109 71 -178 -25 -61 -69 -76 -377 -124 -278 -44 -412 -127 -473 -292 -17 -47
-21 -81 -21 -178 -1 -116 0 -123 32 -187 56 -114 150 -176 305 -205 182 -33
377 10 509 111 l46 34 11 -59 12 -59 175 0 174 0 0 508 c0 474 -1 514 -20 586
-11 43 -32 100 -47 127 -57 106 -174 183 -325 213 -96 20 -336 20 -428 1z
m442 -877 c-6 -77 -15 -117 -33 -152 -56 -112 -201 -187 -337 -173 -96 10
-146 63 -145 155 1 69 20 111 65 145 47 34 96 51 238 82 69 15 145 37 170 49
31 16 46 19 48 11 2 -7 -1 -59 -6 -117z"/>
<path d="M12455 1476 c-190 -44 -343 -150 -434 -300 -83 -138 -124 -349 -102
-529 39 -329 212 -539 511 -619 107 -29 314 -28 423 1 122 32 210 83 303 176
127 127 189 279 201 496 14 251 -61 467 -212 607 -75 70 -162 121 -260 152
-89 29 -335 38 -430 16z m254 -306 c80 -14 128 -38 175 -90 69 -76 96 -172 96
-333 0 -165 -41 -291 -116 -357 -88 -76 -270 -94 -387 -37 -113 56 -166 167
-174 368 -12 266 78 417 267 449 64 11 68 11 139 0z"/>
<path d="M15350 1474 c-133 -28 -214 -69 -283 -143 -70 -74 -101 -147 -115
-264 l-8 -67 178 0 c178 0 178 0 178 23 1 59 62 139 125 161 82 30 227 24 290
-13 78 -45 97 -142 39 -202 -35 -37 -89 -53 -264 -79 -238 -37 -349 -70 -433
-130 -109 -79 -152 -179 -152 -360 0 -110 1 -118 33 -182 56 -115 148 -176
305 -205 181 -32 378 10 509 111 l46 34 11 -59 12 -59 175 0 174 0 0 499 c0
406 -3 513 -15 571 -43 203 -165 321 -377 364 -97 20 -336 20 -428 0z m441
-864 c-6 -101 -10 -121 -36 -169 -62 -113 -198 -182 -333 -168 -95 10 -147 65
-146 155 2 126 64 175 279 221 116 25 192 48 219 67 11 8 21 13 22 11 1 -1 -2
-54 -5 -117z"/>
<path d="M18115 1475 c-140 -31 -233 -83 -326 -183 -72 -77 -119 -164 -151
-279 -18 -65 -22 -106 -22 -248 -1 -183 11 -264 59 -386 89 -227 283 -353 576
-374 290 -21 531 109 644 348 25 52 45 97 45 101 0 3 -87 6 -194 6 l-194 0
-11 -29 c-34 -81 -148 -137 -263 -128 -151 10 -259 120 -286 290 l-9 57 489 0
488 0 0 40 c0 23 -5 84 -11 138 -39 363 -191 572 -465 642 -92 24 -275 26
-369 5z m242 -288 c29 -8 68 -25 88 -38 63 -42 125 -158 125 -233 l0 -26 -285
0 -285 0 0 30 c0 44 35 130 71 173 73 89 176 122 286 94z"/>
<path d="M6760 947 c0 -429 3 -522 15 -572 62 -235 222 -365 455 -368 187 -3
309 52 417 188 l32 40 1 -97 0 -98 175 0 175 0 0 710 0 710 -185 0 -184 0 -3
-462 -3 -463 -26 -56 c-47 -100 -121 -149 -234 -157 -124 -8 -203 32 -241 121
-18 39 -19 81 -22 530 l-3 487 -184 0 -185 0 0 -513z"/>
<path d="M13500 948 c0 -567 2 -588 63 -702 105 -197 320 -282 567 -224 95 22
186 83 257 173 l32 40 1 -97 0 -98 175 0 175 0 0 710 0 710 -185 0 -184 0 -3
-462 c-3 -459 -3 -463 -26 -513 -47 -103 -124 -155 -237 -163 -93 -6 -150 11
-196 57 -67 67 -69 84 -69 613 l0 468 -185 0 -185 0 0 -512z"/>
</g>
</svg>
